<svg xmlns="http://www.w3.org/2000/svg" viewBox="0 0 64 64" role="img" aria-label="Verola">
  <defs>
    <linearGradient id="verola-blue" x1="12" y1="10" x2="32" y2="56" gradientUnits="userSpaceOnUse">
      <stop stop-color="#1398ff"/>
      <stop offset="1" stop-color="#3328c8"/>
    </linearGradient>
    <linearGradient id="verola-purple" x1="31" y1="12" x2="53" y2="50" gradientUnits="userSpaceOnUse">
      <stop stop-color="#c53aff"/>
      <stop offset="1" stop-color="#2f5cff"/>
    </linearGradient>
  </defs>
  <rect width="64" height="64" rx="14" fill="#fff"/>
  <path fill="url(#verola-blue)" d="M10.5 12h12.2c3.1 0 5.9 1.8 7.2 4.7l11 24.6-7.8 12.5c-2 3.2-6.7 3.1-8.5-.3L10.5 12Z"/>
  <path fill="url(#verola-purple)" d="M53.5 12H41.2c-3.1 0-5.9 1.8-7.2 4.7L23 41.3l7.8 12.5c2 3.2 6.7 3.1 8.5-.3L53.5 12Z" opacity=".96"/>
  <path fill="#1d2dc4" d="M23 41.3 32 21l8.9 20.3-7.8 12.5c-2 3.2-6.7 3.1-8.5-.3L23 41.3Z" opacity=".48"/>
</svg>
